<?xml version="1.0" standalone="no"?>
<!DOCTYPE svg PUBLIC "-//W3C//DTD SVG 1.1//EN" "http://www.w3.org/Graphics/SVG/1.1/DTD/svg11.dtd" >
<svg xmlns="http://www.w3.org/2000/svg">
<metadata>Generated by IcoMoon</metadata>
<defs>
<font id="icomoon" horiz-adv-x="1024">
<font-face units-per-em="1024" ascent="870.4" descent="-153.6" />
<missing-glyph horiz-adv-x="1024" />
<glyph unicode="&#x20;" d="" />
<glyph unicode="&#xe900;" glyph-name="black" d="M831.695 113.872c0 0 32.413-54.105 63.935-138.485 28.067-75.12 18.059-144.683-49.973-134.389-66.856 10.116 25.681 78.824 3.419 134.389-32.377 81.032-76.651 116.793-81.602 116.081-97.524-15.209-298.057-26.571-428.884 102.724-178.271 176.277-64.826 441.564-249.152 565.161 299.802 194.442 650.254 93.178 780.262-102.119 124.095-186.25 40.712-398.751-8.762-493.425 0 0-238.752 376.774-356.258 411.181 139.732-135.636 327.015-461.119 327.015-461.119z" />
<glyph unicode="&#xe901;" glyph-name="buildings" d="M29.551 753.904l0.034-0.034c0.559-1.313 1.173-1.889 1.173-1.889l0.385 0.402 262.179-250.757v-661.623h705.034v983.828h-705.034v-114.912l-160.229 153.231-0.788-0.822c-5.317 1.941-35.277 13.014-76.992-30.608s-27.931-71.587-25.762-76.816v0zM760.313 139.521h150.591v-212.070h-150.591v212.070zM760.313 537.425h150.591v-380.413h-150.591v380.413zM760.313 736.378h24.050v-181.462h-24.050v181.462zM841.064 736.378h24.050v-181.462h-24.050v181.462zM910.904 554.916h-28.299v181.462h28.299v-181.462zM823.575 554.916h-21.724v181.462h21.724v-181.462zM742.822 554.916h-21.863v181.462h21.863v-181.462zM679.42 736.378h24.050v-181.462h-24.050v181.462zM380.774 736.378h281.157v-181.462h-91.824v-17.491h172.717v-609.974h-115.874v40.56h-34.98v-40.56h-211.196v325.757h27.548v34.98h-27.548v129.795l15.794-15.111c3.864 19.344 17.962 43.148 35.802 63.508 21.53 24.609 46.419 42.221 65.36 47.032l-116.958 111.867v111.099zM439.927 461.22c-24.643-28.65-34.036-53.293-34.509-65.711-0.14-3.778 8.342-8.57 9.846-8.57 0.034 0 0.071 0 0.088 0l103.054-12.349c0 0.034-0.034 0.071-0.034 0.123-0.402 5.089 1.924 11.019 6.384 16.267 2.169 2.537 7.854 8.168 14.937 8.676l-23.63 80.611-5.229 17.874c0.314 3.935-4.198 8.99-5.457 8.99-12.613-0.017-39.828-16.108-65.451-45.911zM496.14 486.092l3.148-10.756 4.198-14.324 15.2-51.841c-3.359-2.571-5.825-5.194-7.24-6.875-2.326-2.728-4.286-5.614-5.876-8.553l-80.842 9.672c3.499 10.739 12.243 27.529 28.456 46.384 17.192 20.026 33.091 31.167 42.957 36.293zM529.807 374.311c0.088-0.123 0.088-0.314 0.192-0.42l15.776-13.205c1.013-0.839 4.74-2.046 8.291-2.046 2.378 0 4.669 0.542 5.999 2.081 3.322 3.83-0.559 12.454-2.257 13.87l-15.776 13.205c-0.368 0.314-0.856 0.454-1.435 0.454-0.105 0-0.228-0.052-0.331-0.071-2.012-0.174-4.863-1.941-7.311-4.775-3.109-3.583-4.353-7.432-3.146-9.093zM591.968 232.324h34.98v55.865h-59.256v-34.98h24.276zM462.75 288.189h50.511v-34.98h-50.511v34.98zM591.968 177.895h34.98v-50.511h-34.98v50.511zM591.968 72.954h34.98v-50.511h-34.98v50.511z" />
<glyph unicode="&#xe902;" glyph-name="home" d="M1013.783 461.119l-343.778 259.24c-9.157 6.904-21.769 6.904-30.926 0l-56.514-42.617-56.514 42.617c-9.157 6.904-21.769 6.904-30.926 0l-55.105-41.553-55.105 41.553c-9.157 6.904-21.769 6.904-30.926 0l-343.778-259.24c-6.431-4.853-10.213-12.447-10.213-20.503v-436.471c0-14.183 11.497-25.68 25.68-25.68h972.641c14.183 0 25.68 11.497 25.68 25.68v436.471c0 8.056-3.782 15.65-10.217 20.503zM972.641 29.824h-92.586v410.791c0 8.060-3.782 15.65-10.217 20.503l-244.617 184.461 29.323 22.114 318.098-239.878v-397.991zM738.919 29.824v410.791c0 8.060-3.782 15.65-10.217 20.503l-246.026 185.521 27.918 21.050 318.102-239.878v-397.991h-89.776zM411.514 29.828h-84.112v186.215h84.112v-186.215zM462.873 29.828v211.894c0 14.183-11.497 25.68-25.68 25.68h-135.471c-14.183 0-25.68-11.497-25.68-25.68v-211.894h-224.683v397.991l318.098 239.878 318.102-239.878v-397.991h-224.686z" />
<glyph unicode="&#xe903;" glyph-name="design-skills" d="M631.467 625.067c0 10.24-6.827 17.067-17.067 17.067h-102.4c-10.24 0-17.067-6.827-17.067-17.067v-34.133c-32.427 29.013-90.453 68.267-170.667 68.267h-34.133c-29.013 0-51.2-22.187-51.2-51.2h-179.2c-35.84 0-59.733-17.067-59.733-42.667v-34.133c0-13.653 6.827-27.307 17.067-37.547-10.24-6.827-17.067-18.773-17.067-30.72v-34.133c0-13.653 6.827-27.307 17.067-37.547-10.24-6.827-17.067-18.773-17.067-30.72v-34.133c0-13.653 6.827-27.307 17.067-39.253-10.24-8.533-17.067-22.187-17.067-37.547v-34.133c0-29.013 22.187-51.2 51.2-51.2h443.733v-17.067c0-10.24 6.827-17.067 17.067-17.067h102.4c10.24 0 17.067 6.827 17.067 17.067v34.133h392.533v34.133h-392.533v358.4h392.533v34.133h-392.533v17.067zM290.133 625.067h34.133c10.24 0 17.067-6.827 17.067-17.067v-221.867c0-10.24-6.827-17.067-17.067-17.067h-34.133c-10.24 0-17.067 6.827-17.067 17.067v221.867c0 10.24 6.827 17.067 17.067 17.067zM290.133 326.4c0-13.653-5.12-25.6-8.533-25.6h-221.867c-8.533 0-25.6 17.067-25.6 25.6v34.133c0 3.413 11.947 8.533 25.6 8.533h182.613c6.827-20.48 25.6-34.133 47.787-34.133v-8.533zM34.133 531.2v34.133c0 3.413 11.947 8.533 25.6 8.533h179.2v-68.267h-179.2c-8.533 0-25.6 17.067-25.6 25.6zM34.133 428.8v34.133c0 3.413 11.947 8.533 25.6 8.533h179.2v-68.267h-179.2c-8.533 0-25.6 17.067-25.6 25.6zM51.2 198.4c-10.24 0-17.067 6.827-17.067 17.067v34.133c0 10.24 6.827 17.067 17.067 17.067h221.867c10.24 0 17.067-6.827 17.067-17.067v-34.133c0-10.24-6.827-17.067-17.067-17.067h-221.867zM320.853 198.4c1.707 5.12 3.413 10.24 3.413 17.067v34.133c0 13.653-5.12 23.893-11.947 32.427 6.827 10.24 11.947 25.6 11.947 44.373v8.533c29.013 0 51.2 22.187 51.2 51.2v221.867c0 3.413 0 6.827-1.707 10.24 66.56-17.067 109.227-61.44 121.173-75.093v-344.747h-174.080zM597.333 164.267h-68.267v443.733h68.267v-443.733zM665.6 300.8h51.2v-34.133h-51.2v34.133zM750.933 300.8h51.2v-34.133h-51.2v34.133zM1006.933 61.867h-989.867c-10.24 0-17.067-6.827-17.067-17.067v-187.733c0-10.24 6.827-17.067 17.067-17.067h989.867c10.24 0 17.067 6.827 17.067 17.067v187.733c0 10.24-6.827 17.067-17.067 17.067zM989.867-125.867h-119.467v85.333h-34.133v-85.333h-136.533v85.333h-34.133v-85.333h-136.533v85.333h-34.133v-85.333h-136.533v85.333h-34.133v-85.333h-136.533v85.333h-34.133v-85.333h-119.467v153.6h955.733v-153.6zM17.067 727.467h836.267c1.707 0 1.707 0 3.413 0 3.413 0 5.12 1.707 6.827 3.413l148.48 49.493c6.827 1.707 11.947 8.533 11.947 15.36s-5.12 13.653-11.947 15.36l-148.48 49.493c-1.707 1.707-5.12 3.413-8.533 3.413h-837.973c-10.24 0-17.067-6.827-17.067-17.067v-102.4c0-10.24 6.827-17.067 17.067-17.067zM870.4 768.427v54.613l81.92-27.307-81.92-27.307zM836.267 812.8h-648.533v-34.133h648.533v-17.067h-699.733v68.267h699.733v-17.067zM34.133 829.867h68.267v-68.267h-68.267v68.267z" />
<glyph unicode="&#xe904;" glyph-name="mountain" d="M806.539 67.021l-377.243 573.995c-7.644 11.634-19.222 18.305-31.754 18.305-12.845 0-24.548-6.932-32.114-19.017l-358.842-573.44c-7.807-12.483-8.717-26.070-2.498-37.302 6.219-11.235 18.228-17.671 32.945-17.671h739.767c14.833 0 26.832 6.493 32.94 17.816s4.942 24.918-3.201 37.314zM397.765 614.364c3.77 0 5.96-3.63 5.96-3.63l228.641-340.36c14.731-26.514 4.868-34.735-23.081-7.61 0 0-82.762 96.033-113.699 124.722-7.768 7.203-23.557 9.050-32.353 3.144-22.904-15.37-62.775-54.228-85.943-69.201-8.895-5.751-20.973-0.809-23.488 9.486-8.318 34.010-15.279 104.082-24.053 137.981-2.653 10.256-12.581 12.147-21.126 5.886-2.116-1.551-6.626-4.259-8.885-5.593-2.614-1.541-1.157 0.639-1.157 0.639l93.55 141.278c-0.005-0.007 1.697 3.257 5.632 3.257zM1017.49 147.033l-347.166 528.232c-7.038 10.705-17.688 16.845-29.226 16.845-11.819 0-22.59-6.379-29.549-17.503l-72.525-115.896c0 0-2.71-4.145-0.609-8.811 2.345-5.211 8.951-14.67 12.559-19.106 2.816-3.455 6.382 2.402 6.382 2.402l79.401 120.448c0 0 2.153 3.208 4.555 3.208 2.735 0 4.801-3.418 4.801-3.418l225.938-334.287c6.419-9.326-10.557-9.368-25.362 2.505-22.368 17.937-66.632 54.433-89.060 72.299-7.63 6.076-21.552 8.14-29.771 2.895-12.11-7.731-40.939-30.304-52.687-41.139-6.305-5.812-1.706-11.274-1.706-11.274l158.005-240.418c0 0 4.468-7.716 11.56-7.716 36.777 0 147.108 0 147.108 0 13.642 0 24.696 5.977 30.314 16.394 5.612 10.419 4.535 22.936-2.959 34.341z" />
<glyph unicode="&#xe905;" glyph-name="nature" d="M959.622 37.934c-42.677 45.77-90.015 162.953-193.111 236.652-19.34 13.825-38.374 23.496-56.713 29.942 0.79 0.766 1.615 1.483 2.398 2.268l174.458 174.458c71.391 71.396 71.391 187.561 0 258.952l-28.349 28.344c-71.391 71.396-187.556 71.396-258.947 0.005l-174.458-174.463c-39.38-39.375-56.99-92.371-52.93-143.966-51.597 4.060-104.591-13.55-143.966-52.93l-174.463-174.458c-71.391-71.391-71.387-187.556 0.005-258.947l28.342-28.349c71.396-71.391 187.561-71.391 258.952 0l173.216 173.218c136.317-193.050 380.466-159.482 484.453-134.238 30.607 7.43 32.502 14.836 11.827 25.722-14.824 7.808-33.131 18.935-50.713 37.79zM486.554 532.439l174.458 174.463c37.394 37.394 98.238 37.394 135.64 0l28.349-28.349c37.394-37.399 37.394-98.243 0-135.64l-174.453-174.463c-31.655-31.655-80.108-36.508-116.923-14.578l72.312 72.312c17.030 17.026 17.030 44.626 0 61.649-17.026 17.030-44.631 17.030-61.651 0.005l-72.309-72.312c-21.93 36.815-17.075 85.263 14.578 116.913zM453.646 171.554l-174.463-174.455c-37.394-37.394-98.238-37.394-135.64 0l-28.344 28.349c-37.399 37.392-37.394 98.241-0.005 135.64l174.463 174.458c31.653 31.653 80.098 36.508 116.913 14.581l-72.312-72.312c-17.026-17.028-17.026-44.631 0-61.651 17.030-17.028 44.631-17.028 61.654 0l72.312 72.312c21.925-36.818 17.072-85.268-14.578-116.921zM853.089 64.528c-17.499 12.993-34.984 29.778-48.485 44.113-13.962 14.176-25.87 25.698-32.389 32.166-6.598 6.338-26.613 26.78-58.072 45.635-15.995 9.522-33.803 17.971-55.382 25.934-18.687 7.823-40.247 10.94-61.74 9.885-9.959-0.491-19.802-1.74-29.424-3.51 1.063 9.487 1.387 19.038 0.975 28.57 9.075 1.078 18.368 1.745 27.841 1.831 105.295-4.332 176.267-82.428 189.345-94.826 6.79-6.736 18.165-19.456 30.87-34.92 12.529-15.904 26.638-32.598 42.804-47.714 31.096-30.448 62.061-54.496 62.032-54.43 0.015-0.054-33.653 20.010-68.375 47.267z" />
<glyph unicode="&#xe906;" glyph-name="nature-1" d="M996.593 326.197c-6.96 6.962-16.669 10.458-26.462 9.527-2.459-0.231-61.040-5.876-130.217-21.429-96.344-21.66-163.909-51.363-200.825-88.277-60.982-60.982-90.128-141.012-78.261-210.253-22.226-15.813-65.562-44.562-122.357-72.198 78.303 131.707 105.313 238.205 91.599 319.56-13.263 78.666-91.863 106.337-141.443 159.704-32.338 34.807-74.507 88.84-114.9 166.457l269.337-194.982c8.551-6.193 19.555-7.919 29.595-4.65 10.042 3.272 17.913 11.147 21.178 21.191 15.366 47.27 14.366 101.372-2.886 156.459-17.125 54.679-49.285 106.687-93.002 150.404-48.706 48.708-138.878 88.125-268.010 117.159-93.601 21.044-172.749 28.67-176.071 28.985-9.793 0.923-19.5-2.567-26.462-9.527-6.96-6.96-10.454-16.662-9.527-26.462 0.315-3.325 7.939-82.471 28.985-176.074 29.034-129.131 68.453-219.302 117.161-268.010 43.715-43.717 95.727-75.877 150.404-93.002 29.183-9.139 58.087-13.717 85.848-13.717 17.554 0 34.637 1.867 51.055 5.531 5.275-7.162 11.68-19.15 15.038-37.768 8.118-44.987 0.727-150.662-139.955-352.944-8.126-11.687-7.851-27.266 0.685-38.659 6.358-8.485 16.231-13.226 26.434-13.226 3.496 0 7.032 0.557 10.478 1.709 142.489 47.686 243.967 126.293 254.011 134.239l164.431 119.037c-61.74-102.233-143.779-138.321-142.7-170.237 0.447-13.239 10.093-24.421 22.691-28.516 17.477-5.68 35.936-8.437 54.849-8.437 61.22 0 127.104 28.88 179.121 80.897 36.916 36.916 66.617 104.481 88.279 200.825 15.553 69.177 21.198 127.755 21.429 130.217 0.925 9.804-2.569 19.507-9.529 26.467zM210.73 430.487c-69.868 69.868-108.147 258.681-122.297 362.817 104.133-14.15 292.946-52.429 362.815-122.297 56.363-56.363 88.198-128.5 87.363-191.937l-325.377 235.548c-11.805 8.547-27.818 8.342-39.401-0.498-11.585-8.84-16.006-24.23-10.881-37.871 65.199-173.517 150.318-275.956 210.006-331.236-55.483 7.616-114.506 37.752-162.227 85.474zM849.708 15.398c-25.33-25.33-55.069-43.638-84.739-53.409 41.951 44.492 93.475 115.787 134.248 224.297 5.128 13.642 0.705 29.032-10.879 37.871-5.912 4.509-12.97 6.77-20.038 6.77-6.786 0-13.58-2.087-19.364-6.275l-223.718-161.956c4.646 39.512 26.11 82.145 60.58 116.613 47.162 47.16 172.584 74.252 249.487 85.56-11.275-76.87-38.334-202.225-85.578-249.471z" />
<glyph unicode="&#xe907;" glyph-name="profile" d="M938.906 89.361l-163.038 81.51c-15.377 7.697-24.934 23.159-24.934 40.363v57.702c3.908 4.779 8.021 10.223 12.271 16.23 21.146 29.867 38.093 63.113 50.415 98.97 24.081 11.042 39.714 34.85 39.714 61.73v68.267c0 16.435-6.144 32.358-17.067 44.8v90.778c0.956 9.387 4.71 65.263-35.703 111.36-35.055 39.987-91.938 60.262-169.097 60.262s-134.042-20.275-169.097-60.245c-24.491-27.938-32.734-59.409-35.226-82.005-29.252 15.121-63.727 22.784-102.878 22.784-177.306 0-187.631-151.125-187.733-153.6v-78.148c-11.059-12.049-17.067-25.958-17.067-39.765v-58.948c0-18.415 8.243-35.584 22.374-47.189 14.080-53.077 48.708-93.184 62.191-107.264v-46.814c0-13.431-7.305-25.754-19.985-32.683l-113.545-71.219c-43.486-23.723-70.502-69.239-70.502-118.767v-64.802h1024v69.001c0 58.675-32.614 111.445-85.094 137.694zM238.933-45.005v-38.195h-204.8v30.669c0 37.035 20.207 71.066 53.606 89.31l113.527 71.219c22.75 12.407 36.881 36.198 36.881 62.14v61.286l-5.427 5.069c-0.444 0.41-45.79 43.247-59.187 101.632l-1.553 6.758-5.837 3.755c-7.851 5.086-12.544 13.602-12.544 22.767v58.948c0 6.144 4.181 13.449 11.452 20.036l5.615 5.069-0.034 91.819c0.307 4.898 9.199 120.457 153.634 120.457 40.841 0 75.23-9.438 102.4-28.058v-80.742c-10.923-12.442-17.067-28.365-17.067-44.8v-68.267c0-5.188 0.597-10.291 1.724-15.241 0.461-1.98 1.382-3.789 2.014-5.7 0.939-2.867 1.69-5.82 3.004-8.533 0.017-0.034 0.034-0.051 0.051-0.085 4.369-9.011 10.735-17.067 18.756-23.501 0.085-0.324 0.188-0.614 0.273-0.922 1.024-3.908 2.099-7.799 3.26-11.605l1.382-4.454c0.239-0.785 0.529-1.587 0.785-2.372 0.597-1.843 1.178-3.669 1.792-5.478 1.024-2.987 2.099-6.076 3.345-9.438 0.529-1.399 1.109-2.662 1.655-4.045 1.399-3.567 2.799-7.014 4.267-10.428 0.358-0.819 0.666-1.707 1.024-2.509l0.956-2.15c0.444-0.99 0.905-1.877 1.348-2.85 1.673-3.652 3.311-7.185 5.018-10.598 0.273-0.546 0.529-1.143 0.802-1.69 1.075-2.133 2.15-4.147 3.226-6.195 1.843-3.516 3.652-6.827 5.461-10.035 0.887-1.57 1.758-3.106 2.628-4.591 2.458-4.198 4.796-8.055 7.066-11.639 0.495-0.768 0.973-1.57 1.451-2.304 4.13-6.4 7.714-11.588 10.684-15.633 0.785-1.075 1.468-1.997 2.133-2.901 0.375-0.495 0.887-1.212 1.212-1.655v-56.474c0-16.521-9.011-31.676-23.501-39.595l-45.158-24.627-7.868 0.7-3.209-6.741-96.017-52.378c-49.493-27.034-80.23-78.814-80.23-135.202zM989.867-83.2h-716.8v38.195c0 43.878 23.927 84.207 62.447 105.199l152.252 83.046c25.481 13.909 41.301 40.585 41.301 69.581v68.591l-3.311 3.959-0.649 0.768c-0.034 0.051-1.092 1.331-2.816 3.584-0.102 0.137-0.205 0.273-0.324 0.41-0.905 1.178-1.963 2.594-3.174 4.284-0.017 0.034-0.034 0.051-0.051 0.085-2.543 3.533-5.734 8.124-9.284 13.653-0.085 0.119-0.154 0.256-0.239 0.375-1.673 2.611-3.447 5.461-5.257 8.482-0.137 0.222-0.273 0.444-0.41 0.683-3.857 6.468-7.953 13.79-12.032 21.897 0 0-0.017 0.017-0.017 0.034-2.167 4.352-4.335 8.926-6.451 13.687v0c-0.29 0.666-0.597 1.314-0.887 1.98v0c-0.939 2.133-1.877 4.369-2.833 6.673-0.341 0.836-0.683 1.707-1.024 2.56-0.887 2.236-1.792 4.489-2.748 7.066-1.741 4.642-3.379 9.489-4.949 14.49l-0.939 3.038c-0.102 0.341-0.222 0.683-0.324 1.041-1.604 5.393-3.14 10.906-4.437 16.572l-1.553 6.758-5.82 3.755c-9.899 6.383-15.804 17.084-15.804 28.621v68.267c0 9.574 4.062 18.5 11.435 25.173l5.632 5.069v112.333l-0.461 0.358c-0.58 12.322 0.154 50.091 27.699 81.51 28.279 32.273 76.544 48.623 143.428 48.623 66.645 0 114.807-16.23 143.121-48.265 33.229-37.564 27.733-85.623 27.699-86.033l-0.154-108.527 5.632-5.086c7.373-6.656 11.435-15.582 11.435-25.156v-68.267c0-14.899-9.762-27.938-24.269-32.41l-8.499-2.611-2.731-8.448c-11.418-35.516-27.682-68.318-48.367-97.502-5.069-7.185-10.001-13.551-14.285-18.415l-4.25-4.847v-70.4c0-30.208 16.777-57.361 43.793-70.878l163.038-81.51c40.858-20.429 66.236-61.491 66.236-107.179v-34.867z" />
<glyph unicode="&#xe908;" glyph-name="rectangles" d="M611.537 774.696l49.999-250.048h-296.76l70.015 250.048zM714.415 477.024h309.585v-250.044h-309.585v250.044zM357.205 477.024h309.576v-250.044h-309.576v250.044zM0 477.024h309.581v-250.044h-309.581v250.044zM0 179.352h309.581v-250.044h-309.581v250.044zM357.205 179.352h309.576v-250.044h-309.576v250.044zM714.415 179.352h309.585v-250.044h-309.585v250.044zM1005.761 524.648h-295.626l-50.021 250.048h195.601zM168.285 774.696h217.074l-70.023-250.048h-297.097z" />
<glyph unicode="&#xe909;" glyph-name="shield" d="M962.694 562.299l-1.271 27.844-27.040 6.733c-161.201 40.13-164.481 192.202-164.547 198.485v29.657l-28.886 6.742c-5.651 1.312-139.262 32.24-228.945 32.24s-223.303-30.928-228.937-32.232l-28.894-6.742v-29.657c0-6.43-1.87-157.986-164.547-198.493l-27.040-6.733-1.263-27.844c-0.23-4.937-4.913-122.719 45.928-269.559 47.027-135.817 152.458-323.074 387.669-443.973l17.084-8.776 17.084 8.776c235.228 120.899 340.633 308.155 387.677 443.973 50.833 146.84 46.142 264.622 45.928 269.559zM326.683 764.745c41.729 8.636 123.671 23.94 182.287 24.457v-434.172h-343.037c-22.448 77.677-28.271 143.256-29.64 177.751 131.831 45.453 180.072 157.272 190.39 231.963zM515.039-73.966v422.919h341.298c-3.363-11.277-7.070-22.792-11.17-34.504-59.699-170.288-170.739-300.832-330.127-388.415z" />
<glyph unicode="&#xe90a;" glyph-name="social" d="M604.296 208.308c61.906 26.095 110.762 61.616 146.565 106.575 35.809 44.949 53.714 93.9 53.714 146.853 0 52.955-17.905 101.904-53.714 146.861-35.803 44.951-84.659 80.476-146.565 106.577-61.906 26.097-129.238 39.141-202.006 39.141-72.762 0-140.094-13.052-202.004-39.149-61.902-26.097-110.76-61.622-146.565-106.575-35.813-44.951-53.72-93.898-53.72-146.855 0-45.33 13.538-88.015 40.582-128.009 27.044-40 64.19-73.721 111.425-101.145-3.807-9.151-7.712-17.521-11.713-25.151-4.003-7.618-8.761-14.945-14.289-21.998-5.524-7.055-9.805-12.575-12.856-16.562-3.048-3.999-8-9.625-14.859-16.857-6.861-7.239-11.244-12.001-13.144-14.281 0 0.382-0.767-0.48-2.288-2.576-1.527-2.096-2.384-3.042-2.576-2.864-0.188 0.206-0.953-0.747-2.284-2.842-1.333-2.098-2.001-3.144-2.001-3.144l-1.431-2.848c-0.568-1.137-0.953-2.276-1.141-3.427-0.192-1.135-0.288-2.382-0.288-3.711s0.188-2.562 0.572-3.711c0.767-4.946 2.956-8.939 6.573-12.001 3.621-3.042 7.52-4.561 11.717-4.561h1.715c19.044 2.666 35.428 5.712 49.141 9.145 58.668 15.239 111.625 39.623 158.862 73.144 34.282-6.097 67.81-9.143 100.571-9.143 72.762-0.024 140.102 13.016 202.006 39.113zM284.58 256.014l-25.147-17.705c-10.668-7.233-22.471-14.673-35.426-22.297l20.005 48.008-55.429 32c-36.579 21.328-64.956 46.473-85.147 75.426-20.193 28.952-30.285 59.048-30.285 90.289 0 38.863 14.959 75.244 44.861 109.149 29.898 33.905 70.186 60.761 120.854 80.578 50.664 19.805 105.142 29.716 163.428 29.716s112.768-9.911 163.43-29.716c50.664-19.815 90.952-46.673 120.866-80.578 29.902-33.903 44.849-70.284 44.849-109.149 0-38.857-14.947-75.236-44.849-109.141-29.912-33.915-70.2-60.765-120.866-80.572-50.662-19.809-105.138-29.714-163.43-29.714-28.565 0-57.709 2.672-87.427 8l-30.287 5.706zM983.426 187.184c27.056 39.822 40.574 82.571 40.574 128.291 0 46.857-14.289 90.673-42.85 131.43-28.575 40.754-67.438 74.666-116.577 101.714 8.755-28.569 13.136-57.521 13.136-86.861 0-51.044-12.745-99.426-38.286-145.146-25.523-45.706-62.096-86.084-109.714-121.138-44.193-32-94.48-56.564-150.866-73.713-56.37-17.137-115.232-25.715-176.567-25.715-11.425 0-28.189 0.755-50.281 2.276 76.569-50.275 166.478-75.426 269.713-75.426 32.766 0 66.287 3.054 100.577 9.149 47.235-33.535 100.195-57.905 158.858-73.152 13.714-3.439 30.096-6.479 49.145-9.143 4.569-0.39 8.769 0.953 12.575 3.993 3.809 3.054 6.289 7.233 7.426 12.561-0.178 2.288 0 3.543 0.574 3.725 0.562 0.18 0.466 1.425-0.288 3.707-0.753 2.29-1.137 3.433-1.137 3.433l-1.425 2.85c-0.396 0.753-1.041 1.807-1.999 3.136-0.953 1.321-1.711 2.282-2.288 2.856-0.56 0.568-1.411 1.527-2.562 2.85-1.137 1.321-1.903 2.186-2.288 2.568-1.903 2.288-6.283 7.047-13.138 14.289-6.863 7.231-11.807 12.85-14.855 16.849-3.048 4.001-7.335 9.521-12.858 16.576-5.52 7.041-10.288 14.377-14.289 21.998-3.999 7.618-7.904 16.002-11.713 25.139 47.223 27.452 84.375 61.069 111.403 100.905z" />
<glyph unicode="&#xe90b;" d="M273.987-91.352h47.305c9.125 0 16.518-4.064 16.518-9.088 0-5.015-7.393-9.083-16.518-9.083h-2.203c-9.12 0-16.513-4.068-16.513-9.088s7.393-9.092 16.513-9.092h68.897c9.12 0 16.518-4.068 16.518-9.083 0-5.024-7.398-9.092-16.518-9.092h-223.732c-9.12 0-16.513 4.068-16.513 9.092 0 5.015 7.393 9.083 16.513 9.083h28.224c9.12 0 16.513 4.073 16.513 9.092s-7.393 9.088-16.513 9.088h-134.318c-9.125 0-16.513 4.068-16.513 9.083 0 5.024 7.388 9.088 16.513 9.088h215.826z" />
<glyph unicode="&#xe90c;" d="M436.871 57.503h28.252c5.449 0 9.864-2.817 9.864-6.294 0-3.482-4.415-6.299-9.864-6.299h-1.316c-5.444 0-9.859-2.817-9.859-6.299 0-3.473 4.415-6.294 9.859-6.294h41.154c5.444 0 9.864-2.821 9.864-6.299 0-3.473-4.419-6.294-9.864-6.294h-133.625c-5.444 0-9.859 2.821-9.859 6.294 0 3.477 4.415 6.299 9.859 6.299h16.855c5.454 0 9.868 2.821 9.868 6.294 0 3.482-4.415 6.299-9.868 6.299h-80.216c-5.449 0-9.864 2.817-9.864 6.299 0 3.477 4.415 6.294 9.864 6.294h128.896z" />
<glyph unicode="&#xe90d;" d="M807.915-67.048h66.953c12.902 0 23.371-5.454 23.371-12.168 0-6.724-10.469-12.172-23.371-12.172h-3.122c-12.907 0-23.371-5.449-23.371-12.172 0-6.719 10.464-12.168 23.371-12.168h97.509c12.907 0 23.375-5.449 23.375-12.172s-10.469-12.172-23.375-12.172h-316.642c-12.907 0-23.371 5.449-23.371 12.172s10.464 12.172 23.371 12.172h39.944c12.911 0 23.371 5.449 23.371 12.168 0 6.724-10.459 12.172-23.371 12.172h-190.091c-12.911 0-23.375 5.449-23.375 12.172 0 6.714 10.464 12.168 23.375 12.168h305.448z" />
<glyph unicode="&#xe90e;" d="M72.513-152.376c7.592 0 13.747 3.385 13.747 7.569 0 4.174-6.156 7.564-13.747 7.564h-42.133c-7.596 0-13.747-3.389-13.747-7.564 0-4.184 6.151-7.569 13.747-7.569h42.133z" />
<glyph unicode="&#xe90f;" d="M717.286 475.039c88.057 87.235 88.057 228.673 0 315.903-88.057 87.239-230.825 87.239-318.882 0-88.057-87.23-88.057-228.668 0-315.903l39.579 39.21c-66.201 65.587-66.201 171.907 0 237.488 66.196 65.577 173.523 65.577 239.723 0 66.196-65.582 66.196-171.902 0-237.488l39.579-39.21z" />
<glyph unicode="&#xe910;" d="M284.174 376.029l126.768-125.581-171.158-12.108v-70.015l273.6-19.358 182.315-180.62 328.302 325.24-411.524 407.673-328.302-325.231z" />
<glyph unicode="&#xe911;" d="M465.857 196.050l-226.073 15.996v-43.721l273.6-19.358-47.526 47.083z" />
<glyph unicode="&#xe912;" d="M553.068 642.406l280.679-278.056c39.454-39.080 39.454-102.45 0-141.531l-197.457-195.614 59.408-58.858 328.302 325.24-411.524 407.673-59.408-58.854z" />
<glyph unicode="&#xe913;" d="M253.877 208.611c-20.489 62.483-88.228 96.687-151.307 76.383l74.194-226.276c63.074 20.3 97.597 87.406 77.113 149.894z" />
<glyph unicode="&#xe914;" d="M253.872 208.615c-2.835 8.649-6.659 16.693-11.166 24.193-2.314-47.974-33.899-91.783-82.746-107.498l-52.763 160.925c-1.542-0.429-3.089-0.739-4.627-1.238l74.194-226.272c63.074 20.291 97.597 87.396 77.108 149.889z" />
<glyph unicode="&#xe915;" d="M138.834 18.376c6.128 11.942 39.057 29.328 39.057 29.328s5.237-36.601-0.887-48.538c-6.123-11.942-19.63-17.317-30.173-12.011-10.538 5.306-14.117 19.279-7.998 31.221z" />
<glyph unicode="&#xe916;" d="M70.911 52.571c6.123 11.932 39.053 29.328 39.053 29.328s5.241-36.605-0.882-48.542c-6.128-11.942-19.63-17.317-30.173-12.011-10.542 5.301-14.121 19.284-7.998 31.226z" />
<glyph unicode="&#xe917;" d="M2.988 86.756c6.123 11.937 39.053 29.328 39.053 29.328s5.237-36.601-0.882-48.542c-6.128-11.932-19.63-17.317-30.173-12.006-10.538 5.301-14.121 19.284-7.998 31.221z" />
<glyph unicode="&#xe918;" d="M60.031 185.088c4.77 9.037 32.066 20.923 32.066 20.923s5.74-28.986 0.974-38.028c-4.766-9.037-16.028-12.533-25.153-7.813-9.12 4.719-12.653 15.881-7.887 24.918z" />
<glyph unicode="&#xe919;" d="M25.486-32.346c0 10.196 18.642 33.253 18.642 33.253s18.642-23.057 18.642-33.253c0-10.201-8.349-18.467-18.642-18.467s-18.642 8.266-18.642 18.467z" />
<glyph unicode="&#xe91a;" glyph-name="weather" d="M942.618 143.732l-104.007 60.048 90.132 53.147c16.624 9.803 22.154 31.226 12.351 47.85-9.803 16.619-31.221 22.15-47.85 12.351l-124.158-73.21-187.201 108.084 187.169 108.065 124.195-73.2c5.568-3.285 11.681-4.841 17.71-4.841 11.965 0 23.617 6.15 30.136 17.206 9.798 16.624 4.263 38.047-12.361 47.85l-90.146 53.129 104.030 60.062c16.712 9.649 22.439 31.021 12.789 47.733-9.649 16.717-31.021 22.443-47.733 12.789l-104.007-60.052-0.946 104.65c-0.172 19.298-16.004 34.893-35.256 34.627-19.298-0.172-34.804-15.958-34.627-35.256l1.3-144.16-187.192-108.079v216.14l125.504 70.931c16.801 9.495 22.723 30.811 13.227 47.617-9.495 16.801-30.816 22.727-47.617 13.227l-91.115-51.498v120.114c0 19.298-15.646 34.944-34.944 34.944s-34.944-15.646-34.944-34.944v-120.114l-91.115 51.493c-16.81 9.5-38.117 3.578-47.617-13.227-9.495-16.801-3.574-38.121 13.227-47.617l125.5-70.931v-216.135l-187.192 108.079 1.3 144.16c0.177 19.298-15.329 35.084-34.627 35.256-0.107 0-0.21 0-0.321 0-19.149 0-34.762-15.436-34.935-34.632l-0.946-104.645-104.007 60.052c-16.712 9.654-38.084 3.923-47.733-12.789s-3.923-38.084 12.789-47.733l104.026-60.062-90.16-53.138c-16.624-9.798-22.159-31.221-12.361-47.85 6.518-11.056 18.171-17.206 30.14-17.206 6.029 0 12.137 1.561 17.71 4.841l124.209 73.2 187.173-108.065-187.206-108.084-124.177 73.224c-16.615 9.798-38.047 4.272-47.85-12.351s-4.272-38.047 12.351-47.845l90.146-53.152-104.007-60.048c-16.712-9.649-22.439-31.021-12.789-47.733 6.472-11.21 18.217-17.477 30.294-17.477 5.926 0 11.937 1.51 17.439 4.687l104.007 60.052 0.946-104.655c0.172-19.191 15.785-34.632 34.935-34.632 0.107 0 0.214 0 0.321 0.005 19.298 0.172 34.804 15.958 34.627 35.256l-1.3 144.164 187.197 108.079v-216.144l-125.5-70.931c-16.801-9.495-22.723-30.811-13.227-47.617 6.425-11.368 18.264-17.756 30.452-17.756 5.824 0 11.732 1.458 17.164 4.529l91.115 51.493v-120.114c0-19.298 15.646-34.944 34.944-34.944s34.944 15.646 34.944 34.944v120.114l91.115-51.493c5.433-3.070 11.336-4.529 17.164-4.529 12.188 0 24.027 6.388 30.452 17.756 9.495 16.801 3.574 38.121-13.227 47.617l-125.504 70.931v216.14l187.192-108.074-1.333-144.16c-0.182-19.298 15.319-35.088 34.618-35.265 0.112-0.005 0.219-0.005 0.331-0.005 19.145 0 34.758 15.436 34.935 34.622l0.969 104.669 104.021-60.057c5.502-3.178 11.513-4.687 17.439-4.687 12.077 0 23.822 6.271 30.294 17.477 9.649 16.712 3.923 38.084-12.794 47.733z" />
<glyph unicode="&#xe91b;" glyph-name="link" d="M999.794 154.029l-270.417 270.452c-15.589 15.589-36.85 24.192-59.868 24.192-26.443 0-53.070-11.481-73.082-31.487l-40.745-40.727-19.215 19.197 40.738 40.742c17.322 17.329 28.275 39.572 30.877 62.626 2.988 26.694-5.593 52.361-23.589 70.332l-270.449 270.442c-15.596 15.607-36.857 24.202-59.847 24.202-26.453 0-53.094-11.47-73.093-31.497l-149.624-149.614c-38.657-38.671-41.94-98.291-7.27-132.965l270.388-270.399c15.6-15.593 36.853-24.199 59.886-24.199 0.004 0 0 0 0.004 0 26.45 0 53.091 11.445 73.097 31.458l40.738 40.742 19.222-19.226-40.738-40.738c-17.326-17.294-28.282-39.543-30.884-62.587-3.013-26.74 5.597-52.361 23.603-70.374l270.42-270.406c15.589-15.589 36.857-24.188 59.875-24.192 0.004 0 0 0 0.004 0 26.436 0 53.070 11.474 73.082 31.451l149.614 149.642c38.671 38.643 41.922 98.306 7.273 132.933zM359.443 354.915c-0.766-0.759-1.475-1.326-2.148-1.801l-259.471 259.482c0.443 0.666 1.039 1.4 1.804 2.169l149.624 149.61c0.723 0.769 1.482 1.336 2.159 1.822l259.46-259.478c-0.475-0.677-1.046-1.428-1.804-2.176l-40.745-40.742-89.193 89.189-68.141-68.138 89.196-89.196-40.742-40.742zM924.386 89.234l-149.614-149.61c-0.759-0.766-1.492-1.375-2.183-1.822l-259.453 259.475c0.471 0.681 1.035 1.386 1.804 2.144l40.742 40.742 89.193-89.2 68.141 68.145-89.193 89.189 40.738 40.745c0.751 0.766 1.496 1.358 2.169 1.811l259.464-259.46c-0.479-0.691-1.039-1.432-1.808-2.159z" />
<glyph unicode="&#xe91c;" glyph-name="nature2" d="M959.622 37.934c-42.677 45.77-90.015 162.953-193.111 236.652-19.34 13.825-38.374 23.496-56.713 29.942 0.79 0.766 1.615 1.483 2.398 2.268l174.458 174.458c71.391 71.396 71.391 187.561 0 258.952l-28.349 28.344c-71.391 71.396-187.556 71.396-258.947 0.005l-174.458-174.463c-39.38-39.375-56.99-92.371-52.93-143.966-51.597 4.060-104.591-13.55-143.966-52.93l-174.463-174.458c-71.391-71.391-71.387-187.556 0.005-258.947l28.342-28.349c71.396-71.391 187.561-71.391 258.952 0l173.216 173.218c136.317-193.050 380.466-159.482 484.453-134.238 30.607 7.43 32.502 14.836 11.827 25.722-14.824 7.808-33.131 18.935-50.713 37.79zM486.554 532.439l174.458 174.463c37.394 37.394 98.238 37.394 135.64 0l28.349-28.349c37.394-37.399 37.394-98.243 0-135.64l-174.453-174.463c-31.655-31.655-80.108-36.508-116.923-14.578l72.312 72.312c17.030 17.026 17.030 44.626 0 61.649-17.026 17.030-44.631 17.030-61.651 0.005l-72.309-72.312c-21.93 36.815-17.075 85.263 14.578 116.913zM453.646 171.554l-174.463-174.455c-37.394-37.394-98.238-37.394-135.64 0l-28.344 28.349c-37.399 37.392-37.394 98.241-0.005 135.64l174.463 174.458c31.653 31.653 80.098 36.508 116.913 14.581l-72.312-72.312c-17.026-17.028-17.026-44.631 0-61.651 17.030-17.028 44.631-17.028 61.654 0l72.312 72.312c21.925-36.818 17.072-85.268-14.578-116.921zM853.089 64.528c-17.499 12.993-34.984 29.778-48.485 44.113-13.962 14.176-25.87 25.698-32.389 32.166-6.598 6.338-26.613 26.78-58.072 45.635-15.995 9.522-33.803 17.971-55.382 25.934-18.687 7.823-40.247 10.94-61.74 9.885-9.959-0.491-19.802-1.74-29.424-3.51 1.063 9.487 1.387 19.038 0.975 28.57 9.075 1.078 18.368 1.745 27.841 1.831 105.295-4.332 176.267-82.428 189.345-94.826 6.79-6.736 18.165-19.456 30.87-34.92 12.529-15.904 26.638-32.598 42.804-47.714 31.096-30.448 62.061-54.496 62.032-54.43 0.015-0.054-33.653 20.010-68.375 47.267z" />
<glyph unicode="&#xe91d;" glyph-name="pencil" d="M185.8 727.178c-13.091 0-25.403-5.098-34.662-14.357-19.109-19.111-19.109-50.211 0.002-69.324 9.259-9.257 21.568-14.355 34.662-14.357 13.091 0.002 25.401 5.1 34.662 14.359 19.109 19.111 19.109 50.211-0.002 69.324-9.259 9.257-21.568 14.357-34.662 14.355zM197.355 666.608c-3.087-3.087-7.192-4.786-11.555-4.786-4.366 0-8.47 1.699-11.555 4.784-6.37 6.372-6.37 16.741-0.002 23.109 3.087 3.087 7.192 4.784 11.558 4.784 4.364 0 8.468-1.697 11.553-4.782 6.37-6.372 6.37-16.741 0.002-23.109zM872.823-8.86c19.109 19.111 19.109 50.211-0.002 69.324-9.259 9.257-21.568 14.355-34.66 14.355-13.094 0-25.403-5.098-34.664-14.357-19.109-19.111-19.109-50.211 0.002-69.324 9.259-9.257 21.568-14.357 34.662-14.357 13.091 0 25.401 5.1 34.662 14.359zM826.606 37.353c3.087 3.087 7.192 4.784 11.558 4.784 4.364 0 8.468-1.697 11.553-4.782 6.37-6.372 6.37-16.741 0.002-23.109-3.087-3.087-7.192-4.786-11.555-4.786-4.366 0-8.47 1.699-11.555 4.784-6.37 6.372-6.37 16.741-0.002 23.109zM277.052 363.533c3.192-3.19 7.375-4.784 11.555-4.784s8.364 1.595 11.555 4.784c6.381 6.383 6.381 16.727 0 23.109l-260.712 260.71 177.159 177.159 115.537-115.539-50.067-50.065c-6.381-6.383-6.381-16.727 0-23.109 3.192-3.19 7.375-4.784 11.555-4.784s8.364 1.595 11.555 4.784l50.067 50.065 43.697-43.699-50.065-50.065c-6.381-6.383-6.381-16.727 0-23.109 3.192-3.19 7.375-4.784 11.555-4.784s8.364 1.595 11.555 4.784l50.065 50.065 43.699-43.699-50.065-50.065c-6.381-6.383-6.381-16.727 0-23.109 3.192-3.19 7.375-4.784 11.555-4.784s8.364 1.595 11.555 4.784l61.62 61.62c6.381 6.383 6.381 16.727 0 23.109l-272.265 272.261c-6.383 6.379-16.727 6.379-23.109 0l-200.268-200.268c-6.381-6.383-6.381-16.727 0-23.109l272.263-272.263zM746.911 340.428c-6.383 6.379-16.727 6.379-23.109 0l-61.62-61.62c-6.381-6.383-6.381-16.727 0-23.109 3.192-3.19 7.375-4.784 11.555-4.784s8.364 1.595 11.555 4.784l50.065 50.065 43.699-43.699-50.065-50.065c-6.381-6.383-6.381-16.727 0-23.109 3.192-3.19 7.375-4.784 11.555-4.784s8.364 1.595 11.555 4.784l50.065 50.065 43.699-43.699-50.067-50.065c-6.381-6.383-6.381-16.727 0-23.109 3.192-3.19 7.375-4.784 11.555-4.784s8.364 1.595 11.555 4.784l50.067 50.065 115.539-115.537-177.159-177.159-260.714 260.707c-6.383 6.379-16.727 6.379-23.109 0-6.381-6.383-6.381-16.727 0-23.109l272.263-272.263c3.192-3.19 7.375-4.784 11.555-4.784s8.364 1.595 11.555 4.784l200.268 200.268c6.381 6.383 6.381 16.727 0 23.109l-272.265 272.263zM865.655 528.494c0.035 0.035 134.454 134.456 134.454 134.456 31.852 31.854 31.852 83.685 0 115.539l-61.62 61.62c-31.854 31.849-83.683 31.858-115.541 0l-30.814-30.814c-6.381-6.383-6.381-16.727 0-23.109 6.383-6.379 16.727-6.379 23.109 0l30.812 30.814c19.113 19.111 50.211 19.111 69.324 0l61.62-61.62c19.111-19.111 19.111-50.211 0-69.322l-65.472-65.474-142.497 142.497c-6.383 6.379-16.727 6.379-23.109 0l-57.389-57.389c-0.039-0.039-575.907-575.907-575.907-575.907-0.033-0.033-0.059-0.068-0.092-0.102-0.137-0.139-0.264-0.29-0.394-0.436-1.29-1.41-2.338-3.024-3.068-4.795l-62.901-152.757c-0.022-0.052-0.044-0.105-0.063-0.155l-44.875-108.979c-2.51-6.1-1.109-13.111 3.556-17.775 3.129-3.126 7.307-4.784 11.56-4.784 2.094 0 4.205 0.403 6.218 1.229l108.99 44.88c0.041 0.017 0.083 0.035 0.126 0.050l152.774 62.908c1.78 0.734 3.401 1.789 4.817 3.087 0.137 0.124 0.277 0.242 0.41 0.37 0.035 0.035 0.074 0.063 0.109 0.098l575.865 575.87zM283.864-7.078c-4.396 7.501-9.78 14.49-16.043 20.756-12.81 12.81-28.348 21.732-44.814 26.218l426.993 426.993c6.381 6.383 6.381 16.727 0 23.109-6.383 6.379-16.727 6.379-23.109 0l-426.993-426.991c-4.488 16.468-13.409 32.004-26.22 44.814-6.266 6.264-13.255 11.647-20.758 16.043l547.147 547.145 53.917-53.917-65.472-65.472c-6.381-6.383-6.381-16.727 0-23.109 3.192-3.19 7.375-4.784 11.555-4.784s8.364 1.595 11.555 4.784l65.472 65.472 53.919-53.917-547.149-547.145zM129.315-79.469l-48.784 48.782 52.736 128.071c6.292-3.259 12.148-7.514 17.303-12.671 15.442-15.44 22.597-36.407 19.137-56.082-0.924-5.248 0.771-10.616 4.538-14.385 3.767-3.767 9.137-5.462 14.385-4.538 19.677 3.46 40.642-3.697 56.082-19.137 5.157-5.155 9.412-11.011 12.671-17.303l-128.068-52.736zM757.476 728.42l130.944-130.944-34.302-34.3-130.944 130.944 34.302 34.3zM67.049-63.424l29.525-29.527-50.193-20.666 20.669 50.193z" />
<glyph unicode="&#xe91e;" glyph-name="people" d="M867.817 80.034l-172.441 39.794c-25.337 16.265-25.288 36.654-25.237 53.124l0.004 1.962c0 0.133-0.018 0.261-0.020 0.394 54.044 55.015 88.478 137.594 88.478 229.772 0 47.546-11.145 95.325-29.349 126.91 16.322 24.718 47.042 81.203 47.042 156.183 0 60.653-14.71 126.319-37.474 167.297-3.408 6.131-10.3 9.455-17.227 8.307-1.048-0.177-106.206-17.47-227.286-17.47-117.764 0-157.857-48.42-170.243-71.359-25.071-2.663-48.65-14.329-65.95-32.914-19.757-21.223-29.899-49.966-27.829-78.863 3.198-44.625 12.786-108.179 22.057-169.639 4.81-31.886 9.353-62.013 13.071-89.667 0.301-91.691 34.661-173.79 88.473-228.564-0.002-0.13-0.020-0.254-0.020-0.385l0.004-1.962c0.049-16.468 0.1-36.855-25.233-53.12l-172.454-39.799c-39.87-9.201-67.717-44.202-67.717-85.12v-103.092c0-28.575 25.492-51.821 56.824-51.821h733.416c31.335 0 56.826 23.247 56.826 51.819v103.092c0 40.92-27.847 75.922-67.717 85.122zM351.654 370.799h108.371v-1.106c0-10.366-8.433-18.799-18.799-18.799h-70.773c-10.366 0-18.799 8.433-18.799 18.799v1.106zM460.026 403.974h-108.371v19.905h108.371v-19.905zM318.479 369.693c0-28.659 23.315-51.974 51.974-51.974h70.773c28.659 0 51.974 23.315 51.974 51.974v54.186h37.598v-54.186c0-28.659 23.315-51.974 51.974-51.974h70.773c28.659 0 51.974 23.315 51.974 51.974v18.799h19.48c-6.883-139.253-99.779-249.918-213.001-249.918s-206.116 110.665-213.001 249.918h19.48v-18.799zM563.974 370.799h108.371v-1.106c0-10.366-8.433-18.799-18.799-18.799h-70.773c-10.366 0-18.799 8.433-18.799 18.799v1.106zM672.346 403.974h-108.371v19.905h108.371v-19.905zM385.305 148.069c37.052-27.075 80.401-42.67 126.695-42.67 46.297 0 89.65 15.597 126.702 42.676 2.634-14.522 9.24-31.344 25.638-46.175l-112.244-123.471c-10.399-11.437-24.638-17.738-40.095-17.738s-29.696 6.301-40.095 17.738l-112.242 123.466c16.399 14.831 23.008 31.651 25.642 46.173zM282.396 719.43c13.763 14.785 32.478 22.928 52.693 22.928 7.493 0 14.055 5.023 16.012 12.257 0.159 0.582 19.295 58.516 143.205 58.516 99.728 0 189.122 11.512 220.671 16.081 17.036-36.473 28.141-91.322 28.141-141.040 0-71.616-32.631-125.125-44.793-142.577-173.321 1.557-287.001 33.058-339.972 52.034-8.625 3.092-18.12-1.4-21.21-10.021-3.090-8.623 1.398-18.12 10.021-21.21 55.387-19.843 174.478-52.899 355.049-54.022 12.273-22.842 20.61-56.344 22.687-90.709h-19.381v18.799c0 9.163-7.427 16.587-16.587 16.587h-353.866c-9.161 0-16.587-7.425-16.587-16.587v-18.799h-18.972c3.981 36.986 20.166 73.695 34.044 99.388 4.355 8.062 1.349 18.122-6.71 22.477s-18.122 1.349-22.477-6.71c-6.252-11.574-12.912-25.237-18.936-40.193-0.093 0.615-0.186 1.236-0.279 1.849-9.176 60.83-18.666 123.731-21.772 167.062-1.438 20.033 5.317 39.171 19.018 53.889zM902.359-108.181c0-10.107-10.831-18.647-23.649-18.647h-67.029v36.492c0 9.163-7.427 16.587-16.587 16.587s-16.587-7.425-16.587-16.587v-36.49h-533.011v36.492c0 9.163-7.427 16.587-16.587 16.587s-16.587-7.425-16.587-16.587v-36.492h-67.029c-12.819 0-23.649 8.537-23.649 18.644v103.092c0 25.379 17.273 47.089 42.002 52.797l165.687 38.235 118.030-129.831c16.521-18.173 40.082-28.597 64.642-28.597s48.121 10.424 64.642 28.597l118.030 129.831 165.687-38.235c24.726-5.706 41.997-27.418 41.997-52.795v-103.094zM449.262 232.081c18.496-13.248 40.19-20.25 62.738-20.25s44.242 7.002 62.738 20.25c7.449 5.335 9.161 15.698 3.826 23.145-5.335 7.449-15.696 9.161-23.143 3.826-12.83-9.189-27.845-14.048-43.422-14.048s-30.592 4.857-43.422 14.048c-7.444 5.33-17.808 3.62-23.143-3.826s-3.623-17.811 3.826-23.145zM303.825 633.514c0.821-8.586 8.042-15.015 16.495-15.015 0.526 0 1.059 0.027 1.595 0.077 9.119 0.869 15.807 8.968 14.938 18.087-1.199 12.562-2.167 23.979-2.882 33.934-0.015 0.21 0.002 0.301 0 0.301 0.009 0.024 0.075 0.144 0.23 0.312 0.338 0.363 0.464 0.378 0.891 0.378 9.161 0 16.587 7.425 16.587 16.587s-7.427 16.587-16.587 16.587c-9.661 0-18.6-3.888-25.173-10.948-6.509-6.991-9.72-16.079-9.039-25.587 0.732-10.218 1.723-21.898 2.946-34.714zM660.097 584.855c2.373-1.179 4.89-1.738 7.371-1.738 6.098 0 11.967 3.377 14.867 9.209 8.415 16.926 19.107 43.95 22.256 76.561 0.88 9.119-5.799 17.224-14.918 18.105-9.13 0.92-17.224-5.797-18.105-14.915-2.663-27.575-11.768-50.556-18.938-64.983-4.083-8.205-0.736-18.16 7.467-22.238zM668.037 738.568c1.334-8.132 8.369-13.905 16.349-13.905 0.891 0 1.796 0.071 2.705 0.221 9.039 1.484 15.165 10.012 13.686 19.053-1.696 10.34-3.8 20.438-6.255 30.019-2.274 8.875-11.306 14.223-20.184 11.954-8.875-2.271-14.225-11.31-11.954-20.184 2.214-8.641 4.116-17.78 5.653-27.159z" />
<glyph unicode="&#xe91f;" glyph-name="scientist" d="M882.235 143.84l-169.612 42.404c-1.632 14.856-9.579 28.84-22.778 37.64l-14.677 9.782c51.131 54.951 83.433 135.219 83.433 224.493 0 16.329-1.097 32.441-3.227 48.296 2.298 18.023 20.92 168.465 20.92 305.57 0 7.195-4.64 13.571-11.485 15.785-4.572 1.477-113.567 36.189-252.809 36.189-32.12 0-111.090-5.281-165.669-53.080h-6.179c-29.101 0-57.156-12.211-76.975-33.498-19.757-21.221-29.899-49.966-27.829-78.863 5.124-71.514 17.065-158.404 30.534-222.467-0.285-5.947-0.48-11.919-0.48-17.93 0-89.274 32.301-169.542 83.433-224.49l-14.677-9.782c-13.199-8.8-21.146-22.787-22.778-37.643l-169.612-42.404c-62.637-15.661-106.381-71.689-106.381-136.252v-115.617c0-28.659 23.315-51.974 51.974-51.974h849.279c28.659 0 51.974 23.315 51.974 51.974v115.617c0 64.563-43.744 120.591-106.379 136.25zM756.738 45.455l-54.135-13.533c-4.881-1.221-8.944-4.589-11.047-9.163-2.103-4.569-2.017-9.849 0.234-14.349l32.060-64.118-28.356-71.116h-115.641l-15.252 104.18c10.477 9.515 17.065 23.238 17.065 38.472v10.492c8.028-6.54 16.364-13.931 24.841-22.298 3.13-3.087 7.325-4.782 11.651-4.782 0.885 0 1.774 0.071 2.661 0.215 8.378 1.36 11.153 6.892 14.365 13.299l70.508 141.029 21.641-5.41 29.404-102.918zM328.538-126.825l-28.387 71.116 32.058 64.116c2.251 4.501 2.338 9.78 0.234 14.349-2.103 4.572-6.166 7.942-11.047 9.163l-54.135 13.533 29.404 102.915 21.643 5.41 70.508-141.027c3.211-6.405 5.987-11.936 14.365-13.299 0.887-0.142 1.776-0.215 2.661-0.215 4.326 0 8.522 1.694 11.651 4.782 8.477 8.367 16.813 15.758 24.841 22.298v-10.492c0-15.234 6.589-28.957 17.063-38.472l-15.296-104.178h-115.564zM512 110.060l-56.311 56.311c18.094-5.155 36.944-7.891 56.311-7.891s38.22 2.736 56.311 7.891l-56.311-56.311zM511.996 68.934c6.708-2.672 19.797-8.491 36.497-18.863v-34.243c0-10.366-8.433-18.799-18.799-18.799h-35.387c-10.366 0-18.799 8.433-18.799 18.799v34.245c16.711 10.379 29.8 16.196 36.488 18.861zM490.96-36.027c1.108-0.071 2.221-0.119 3.346-0.119h35.387c1.124 0 2.234 0.049 3.34 0.119l13.292-90.798h-68.692l13.327 90.798zM677.837 172.252c-35.349-70.742-54.577-109.203-64.578-129.19-28.451 25.016-54.378 40.365-72.164 49.176l114.564 114.566 15.78-10.521c7.871-5.248 10.623-15.579 6.398-24.032zM563.974 480.902c29.873 7.201 60.805 7.201 90.678 0v-53.867c-29.875-7.201-60.803-7.201-90.678 0v53.867zM676.119 509.4c-43.705 13.447-89.904 13.447-133.609 0-6.962-2.141-11.711-8.57-11.711-15.853v-4.638c-5.834 2.271-12.171 3.532-18.799 3.532s-12.965-1.261-18.799-3.532v4.638c0 7.283-4.748 13.712-11.709 15.853-43.705 13.447-89.904 13.447-133.609 0-6.962-2.141-11.711-8.57-11.711-15.853v-1.106h-35.84c4.684 45.815 18.768 88.812 41.508 126.204 178.729 0.608 306.472-14.778 361.709-43.526 10.408-26.398 17.114-54.084 20.089-82.681h-35.811v1.106c0 7.285-4.748 13.715-11.709 15.855zM369.348 480.902c29.873 7.201 60.805 7.201 90.678 0v-53.867c-29.875-7.201-60.803-7.201-90.678 0v53.867zM268.438 700.93c-1.435 20.033 5.319 39.171 19.020 53.887 13.763 14.785 32.476 22.928 52.693 22.928h12.609c4.26 0 8.356 1.639 11.439 4.576 45.967 43.778 118.676 48.504 147.801 48.504 108.438 0 199.793-22.501 231.068-31.202-0.591-73.467-6.259-149.584-11.532-205.49-1.44 2.915-3.663 5.374-6.487 7.018-41.225 23.97-142.776 52.213-392.495 50.627-5.567-0.038-10.744-2.862-13.785-7.522-14.993-22.977-26.927-47.964-35.692-74.389-6.471 43.822-11.7 90.010-14.639 131.063zM298.592 459.266h37.581v-44.875c0-7.283 4.748-13.712 11.711-15.855 21.851-6.721 44.326-10.083 66.803-10.083s44.952 3.362 66.803 10.083c6.96 2.143 11.711 8.572 11.711 15.855v26.076c0 10.366 8.433 18.799 18.799 18.799s18.799-8.433 18.799-18.799v-26.076c0-7.283 4.748-13.712 11.711-15.855 21.851-6.721 44.326-10.083 66.803-10.083s44.952 3.362 66.803 10.083c6.96 2.143 11.711 8.572 11.711 15.855v44.875h37.585c0.002-0.369 0.013-0.736 0.013-1.106 0-146.952-95.743-266.505-213.425-266.505s-213.425 119.554-213.425 266.505c0 0.369 0.015 0.736 0.018 1.106zM352.559 196.283l15.782 10.521 114.564-114.566c-17.786-8.811-43.714-24.162-72.164-49.176-10.001 19.987-29.229 58.448-64.578 129.19-4.224 8.453-1.473 18.784 6.396 24.032zM68.562-108.026v115.617c0 49.311 33.412 92.105 81.25 104.063l109.698 27.425-28.858-101.002c-1.236-4.322-0.663-8.962 1.586-12.854s5.98-6.706 10.342-7.796l50.711-12.677-26.137-52.277c-2.119-4.235-2.324-9.172-0.571-13.569l26.235-65.728h-205.457c-10.366 0-18.799 8.433-18.799 18.799zM955.438-108.026c0-10.366-8.433-18.799-18.799-18.799h-205.428l26.21 65.737c1.752 4.395 1.544 9.329-0.573 13.562l-26.137 52.277 50.711 12.677c4.361 1.090 8.092 3.906 10.342 7.796s2.82 8.53 1.586 12.854l-28.858 101.002 109.698-27.425c47.838-11.958 81.25-54.752 81.25-104.063v-115.619z" />
<glyph unicode="&#xe920;" glyph-name="search" d="M840.891 406.955c25.099 93.663 12.215 191.496-36.269 275.476-64.661 111.995-185.24 181.569-314.69 181.569-63.383 0-126.045-16.839-181.221-48.693-83.98-48.484-144.052-126.771-169.151-220.44-25.099-93.663-12.221-191.496 36.269-275.476 64.661-111.995 185.246-181.569 314.695-181.569 48.85 0 97.264 10.043 142.158 29.217l188.818-327.039 75.453 43.564-188.824 327.050c64.91 48.525 111.466 116.85 132.76 196.34zM628.183 261.968c-41.944-24.216-89.55-37.018-137.657-37.018-98.42 0-190.096 52.881-239.242 138.005-36.849 63.824-46.637 138.179-27.562 209.357 19.075 71.195 64.73 130.692 128.555 167.542 41.949 24.216 89.545 37.018 137.657 37.018 98.42 0 190.090-52.881 239.237-138.005 36.849-63.824 46.637-138.179 27.567-209.363-19.075-71.19-64.73-130.686-128.555-167.536zM533.794 544.478h101.65v-87.128h-101.65v-101.65h-87.128v101.65h-101.65v87.128h101.65v101.65h87.128v-101.65z" />
<glyph unicode="&#xe921;" glyph-name="watering-can" d="M780.938 33.116h-395.686c-29.766 0-53.984 24.218-53.984 53.984v128.533l-235.125 313.823c-26.841-14.827-58.913-18.562-89.205-9.434-3.281 0.99-5.807 3.632-6.641 6.958-0.839 3.325 0.137 6.85 2.56 9.274l131.77 131.77c2.423 2.428 5.943 3.403 9.274 2.56 3.325-0.834 5.968-3.354 6.958-6.641 9.342-30.99 5.217-63.852-10.483-91.063l190.897-172.072v158.118c0 5.383 4.369 9.751 9.751 9.751h566.788c64.071 0 116.192-52.121 116.192-116.192v-75.875c0-37.455-18.201-72.813-48.689-94.574l-140.395-100.2v-94.739c-0.005-29.766-24.222-53.979-53.984-53.979zM350.771 218.782v-131.682c0-19.010 15.466-34.481 34.481-34.481h395.686c19.010 0 34.476 15.466 34.476 34.481v99.639c0 0.078 0 0.156 0 0.229v362.204h-464.643v-170.249c0-0.024 0-0.049 0-0.078v-159.854c0-0.068 0-0.141 0-0.21zM834.916 549.172v-343.375l129.064 92.111c25.373 18.108 40.522 47.533 40.522 78.703v75.87c0 53.316-43.374 96.69-96.69 96.69h-72.896zM113.545 538.758l217.723-290.6v126.392l-201.756 181.863-15.968-17.655zM29.4 535.218c28.796-3.32 57.85 6.548 78.786 27.479 20.931 20.936 30.795 49.985 27.479 78.786l-106.265-106.265zM390.162 89.069c-5.383 0-9.751 4.369-9.751 9.751v414.433c0 5.383 4.369 9.751 9.751 9.751s9.751-4.369 9.751-9.751v-414.433c0-5.383-4.364-9.751-9.751-9.751z" />
<glyph unicode="&#xe922;" glyph-name="watering-can-1" d="M816.002 528.264c-16.412 0-32.6-1.943-48.368-5.704l-2.257 57.527c-0.344 8.767-7.551 15.7-16.327 15.7h-204.224v89.286c0 9.024-7.316 16.34-16.34 16.34-84.099 0-161.58-42.285-207.264-113.11-0.028-0.041-0.039-0.087-0.065-0.131-1.492-2.355-2.414-5.109-2.532-8.085l-1.824-46.513h-104.6l-92.253 146.482 7.277 4.658c7.599 4.867 9.815 14.972 4.95 22.574-4.867 7.597-14.97 9.815-22.574 4.95l-102.069-65.353c-7.599-4.867-9.815-14.972-4.95-22.574 3.12-4.872 8.392-7.532 13.776-7.532 3.015 0 6.068 0.834 8.798 2.582l6.113 3.913 269.49-498.831-4.638-118.283c-0.174-4.442 1.468-8.763 4.549-11.966 3.081-3.205 7.334-5.015 11.778-5.015h459.113c4.445 0 8.697 1.811 11.778 5.015s4.723 7.525 4.549 11.966l-4.259 108.631c10.674-1.669 21.5-2.529 32.376-2.529 114.692 0 207.998 93.308 207.998 208s-93.31 208.002-208 208.002zM816.002 144.947c-11.353 0-22.639 1.092-33.685 3.24l-1.325 33.781c11.375-2.885 23.086-4.347 35.010-4.347 78.654 0 142.643 63.991 142.643 142.645s-63.989 142.643-142.643 142.643c-15.589 0-31.060-2.588-45.733-7.556l-1.327 33.807c15.251 4.24 31.025 6.423 47.058 6.423 96.67 0 175.317-78.647 175.317-175.317 0.002-96.672-78.645-175.319-175.315-175.319zM703.632 54.543h49.651l1.281-32.681h-425.125l1.281 32.681h307.55c9.024 0 16.34 7.316 16.34 16.34s-7.316 16.34-16.34 16.34h-306.269l5.336 136.030c0.355 9.018-6.669 16.615-15.687 16.968-8.994 0.362-16.615-6.669-16.968-15.687l-1.412-35.988-244.406 452.398 33.559 21.487 215.981-342.939-1.163-29.655c-0.355-9.018 6.669-16.615 15.687-16.968 0.218-0.009 0.436-0.013 0.651-0.013 8.728 0 15.972 6.9 16.316 15.7l10.767 274.545h382.675l16.807-428.517c0.004-0.124 0.009-0.251 0.015-0.375l1.843-46.988h-48.368c-9.024 0-16.34-7.316-16.34-16.34s7.314-16.338 16.338-16.338zM512.143 668.114v-72.329h-144.484c36.785 42.093 88.393 68.085 144.484 72.329zM771.624 420.807c13.915 6.153 29.064 9.421 44.378 9.421 60.634 0 109.962-49.328 109.962-109.962s-49.328-109.964-109.962-109.964c-12.517 0-24.715 2.1-36.365 6.203l-8.013 204.303zM315.52 500.893l-4.85-123.668-77.885 123.668h82.735z" />
<glyph unicode="&#xe923;" glyph-name="watering-can-2" d="M847.766 643.832c-67.724 0-128.362-37.78-158.248-98.594-4.968-10.112-0.802-22.336 9.31-27.304 10.114-4.972 22.336-0.802 27.304 9.31 22.974 46.75 69.58 75.792 121.634 75.792 74.68 0 135.438-60.756 135.438-135.438 0-69.69-52.914-127.234-120.67-134.616v131.572c0 11.266-9.132 20.398-20.398 20.398h-448.157l-185.262 174.252c18.4 45.556 8.152 98.782-27.292 134.224-7.966 7.966-20.882 7.966-28.85 0l-146.602-146.6c-7.966-7.966-7.966-20.882 0-28.85 35.028-35.026 87.804-45.462 133.088-27.734l226.434-239.954v-425.297c0-11.266 9.132-20.398 20.398-20.398h456.241c11.266 0 20.398 9.132 20.398 20.398v366.997c90.292 7.526 161.468 83.406 161.468 175.608 0 97.176-79.058 176.234-176.234 176.234zM821.734 387.345h-228.514c-11.266 0-20.398-9.132-20.398-20.398s9.132-20.398 20.398-20.398h228.514v-401.157h-415.443v413.007c0 5.206-1.99 10.214-5.562 14l-242.1 256.553c-6.388 6.77-16.554 8.358-24.7 3.856-26.154-14.454-57.89-13.404-82.866 1.412l114.136 114.136c15.028-25.266 15.904-57.346 0.934-83.714-4.644-8.184-3.092-18.482 3.764-24.93l202.022-190.016c3.782-3.56 8.782-5.54 13.974-5.54h435.841v-56.812zM512.001 387.345h-40.612c-11.266 0-20.398-9.132-20.398-20.398s9.132-20.398 20.398-20.398h40.612c11.266 0 20.398 9.132 20.398 20.398s-9.132 20.398-20.398 20.398z" />
<glyph unicode="&#xe924;" glyph-name="shopping-cart-black-shape" d="M787.684-2.468c0-21.752 7.714-40.31 23.087-55.683 15.372-15.387 33.945-23.087 55.706-23.087 21.729 0 40.302 7.699 55.674 23.087 15.387 15.372 23.087 33.93 23.087 55.683s-7.69 40.31-23.087 55.698c-15.372 15.372-33.945 23.071-55.674 23.071-21.761 0-40.334-7.699-55.706-23.071-15.372-15.387-23.087-33.945-23.087-55.698zM1012.303 694.779c-7.798 7.796-17.023 11.695-27.693 11.695h-739.071c-0.416 2.869-1.339 8.096-2.774 15.685-1.435 7.593-2.561 13.642-3.382 18.159-0.826 4.498-2.356 9.939-4.617 16.297-2.257 6.363-4.923 11.393-7.999 15.077-3.071 3.703-7.173 6.874-12.303 9.548-5.126 2.658-10.975 3.994-17.536 3.994h-157.536c-10.674 0-19.903-3.906-27.697-11.691-7.796-7.794-11.695-17.030-11.695-27.695s3.899-19.897 11.695-27.69c7.8-7.796 17.032-11.691 27.697-11.691h125.524l108.917-506.468c-0.815-1.638-5.020-9.426-12.613-23.382-7.589-13.956-13.639-26.156-18.148-36.616-4.511-10.473-6.768-18.571-6.768-24.311 0-10.665 3.899-19.899 11.691-27.706 7.805-7.772 17.032-11.684 27.699-11.684h630.128c10.665 0 19.899 3.91 27.69 11.684 7.803 7.805 11.697 17.038 11.697 27.706s-3.895 19.901-11.697 27.69c-7.79 7.79-17.023 11.7-27.69 11.7h-566.138c9.85 19.696 14.773 32.81 14.773 39.375 0 4.115-0.513 8.63-1.541 13.542s-2.257 10.357-3.692 16.314c-1.438 5.932-2.356 10.344-2.765 13.219l642.476 75.075c10.245 1.239 18.661 5.634 25.225 13.234 6.565 7.583 9.839 16.299 9.839 26.152v315.083c-0.004 10.665-3.893 19.897-11.695 27.703zM236.301-2.468c0-21.752 7.688-40.31 23.076-55.683 15.392-15.387 33.948-23.087 55.698-23.087 21.737 0 40.304 7.699 55.685 23.087 15.387 15.372 23.084 33.93 23.084 55.683s-7.69 40.31-23.084 55.698c-15.383 15.372-33.948 23.071-55.685 23.071-21.748 0-40.315-7.699-55.698-23.071-15.379-15.387-23.076-33.945-23.076-55.698z" />
<glyph unicode="&#x1f353;" glyph-name="interface" d="M640 83.2c-19.2 0-32 6.4-51.2 12.8l-76.8 32-76.8-32c-12.8-6.4-32-12.8-51.2-12.8-12.8 0-19.2 0-32 6.4l-32-249.6 192 128 192-128-38.4 249.6c-6.4-6.4-19.2-6.4-25.6-6.4zM825.6 486.4c-6.4 12.8-6.4 32 0 44.8l38.4 76.8c12.8 25.6 0 57.6-32 70.4l-83.2 32c-12.8 6.4-25.6 19.2-32 32l-32 83.2c-6.4 25.6-25.6 38.4-44.8 38.4-6.4 0-19.2 0-25.6-6.4l-83.2-38.4c-6.4 0-12.8 0-19.2 0s-12.8 0-19.2 6.4l-83.2 32c-6.4 6.4-19.2 6.4-25.6 6.4-19.2 0-38.4-12.8-51.2-32l-32-89.6c0-12.8-12.8-25.6-25.6-32l-89.6-32c-25.6-6.4-38.4-38.4-25.6-70.4l38.4-83.2c6.4-12.8 6.4-32 0-44.8l-38.4-76.8c-12.8-25.6 0-57.6 32-70.4l83.2-32c12.8-6.4 25.6-19.2 32-32l32-83.2c6.4-25.6 25.6-38.4 44.8-38.4 6.4 0 12.8 0 19.2 6.4l83.2 38.4c6.4 0 12.8 6.4 19.2 6.4s12.8 0 19.2-6.4l83.2-38.4c6.4-6.4 12.8-6.4 19.2-6.4 19.2 0 38.4 12.8 51.2 32l32 83.2c6.4 12.8 19.2 25.6 32 32l83.2 32c25.6 12.8 44.8 44.8 32 70.4l-32 89.6zM512 249.6c-140.8 0-256 115.2-256 256s115.2 256 256 256 256-115.2 256-256c0-140.8-115.2-256-256-256zM704 505.6c0-106.048-85.952-192-192-192s-192 85.952-192 192c0 106.048 85.952 192 192 192s192-85.952 192-192z" />
</font>
</defs>
</svg>
